<svg xmlns="http://www.w3.org/2000/svg" viewBox="0 0 760 390"><path fill="#e6e7de" d="M453.7,150.8 448.7,143.8 440.5,135.9 432.1,134.0 424.9,132.7 417.6,130.6 417.5,126.7 422.4,127.1 429.0,113.7 431.6,97.8 444.2,92.0 458.3,82.1 470.8,72.6 485.1,78.9 481.2,84.2 482.6,91.3 470.3,102.2 468.9,110.8 472.6,115.8 468.6,128.0 461.2,140.2 453.7,150.8ZM426.3,105.2 425.9,119.8 421.3,127.3 416.5,127.9 401.9,129.4 410.9,118.5 426.3,105.2ZM332.9,138.2 322.1,143.6 313.7,142.6 307.3,137.5 321.8,128.2 331.0,128.9 332.9,138.2ZM265.2,111.2 273.0,118.1 278.3,118.3 281.8,113.0 293.4,123.3 287.6,132.3 278.2,135.7 276.0,130.5 273.7,125.4 262.4,116.2 265.2,111.2ZM222.3,64.0 228.4,58.3 235.1,49.6 250.4,50.1 253.6,41.1 267.4,43.4 275.4,47.0 286.1,59.6 288.3,73.9 292.4,82.0 303.4,78.8 308.4,86.1 292.3,91.9 295.9,103.9 299.7,110.9 314.0,115.9 310.8,127.3 295.3,130.3 293.4,123.3 281.7,113.0 278.3,118.3 272.8,118.1 264.1,109.3 258.6,109.2 255.4,103.3 242.2,104.7 241.5,98.1 242.6,87.6 235.5,79.8 223.0,68.3 222.3,64.0ZM485.4,71.7 460.5,80.0 451.1,88.8 438.7,91.8 430.7,88.0 418.5,95.7 378.2,107.4 372.5,104.9 370.4,89.5 358.4,85.9 352.5,75.0 369.3,74.8 387.6,74.6 392.4,69.0 404.4,70.1 418.0,59.6 436.1,47.2 443.6,48.6 453.4,39.0 462.0,36.2 470.2,41.6 476.2,45.3 482.4,52.4 484.3,65.9 485.4,71.7ZM494.1,150.3 477.2,151.5 474.5,135.7 487.7,123.4 492.5,109.2 498.4,106.5 508.0,106.2 515.9,105.7 523.2,116.9 524.9,126.1 524.9,134.9 507.7,143.5 494.1,150.3ZM332.9,138.2 330.5,128.3 310.8,127.3 314.0,115.9 299.7,110.9 295.9,103.9 291.9,94.7 301.9,86.6 324.4,85.5 330.8,83.3 341.4,88.4 346.0,96.5 343.3,100.4 352.5,108.1 352.7,111.1 355.3,114.4 358.9,117.4 351.6,128.3 340.5,133.9 338.7,132.5 340.3,130.7 339.9,130.2 339.2,125.3 340.5,117.9 340.8,113.9 338.0,112.1 340.4,117.4 338.9,121.6 336.4,118.7 338.2,122.7 338.3,124.5 334.1,127.5 334.6,128.7 337.6,131.8 339.0,135.1 342.0,135.7 332.9,138.2ZM438.7,91.8 428.9,101.9 410.9,118.5 399.2,130.3 394.5,127.2 395.1,126.1 386.6,123.0 377.1,124.1 376.5,124.0 375.9,118.8 377.6,107.6 418.5,95.7 430.7,88.0 438.7,91.8ZM208.5,258.3 207.8,258.3 208.5,258.3ZM173.9,285.1 164.0,276.5 164.4,269.0 178.4,246.3 190.6,244.4 195.4,242.8 200.8,238.0 203.7,232.2 215.5,230.3 228.2,225.1 221.7,234.2 223.3,239.0 221.4,243.1 218.2,247.3 216.7,251.1 212.3,253.2 208.3,256.0 207.8,258.0 205.5,258.3 205.8,262.0 203.8,263.9 203.8,266.3 202.8,268.2 203.5,271.0 200.9,271.9 195.8,268.6 192.4,268.1 188.3,268.2 182.6,270.4 177.6,276.1 177.5,280.9 175.9,283.8 173.9,285.1ZM125.9,297.1 142.2,295.3 150.5,301.9 149.9,311.7 145.7,315.7 122.8,317.4 110.4,313.1 111.1,305.7 117.8,307.8 118.7,303.3 125.9,297.1ZM323.4,37.5 328.9,32.1 337.8,24.2 345.2,29.0 362.0,44.2 361.2,55.7 364.6,66.2 352.5,75.0 343.9,66.2 330.8,54.2 323.6,38.8 323.4,37.5ZM512.2,203.4 511.8,203.4 512.2,203.4ZM512.1,202.9 512.4,203.2 512.1,202.9ZM508.1,196.5 507.3,196.5 508.1,196.5ZM495.4,149.6 507.7,143.5 528.0,145.0 532.4,151.8 526.8,164.5 527.6,169.8 524.4,176.2 523.6,179.4 522.8,186.0 520.3,193.8 519.7,201.0 518.5,207.3 513.5,202.3 508.9,196.8 507.7,195.2 501.5,192.6 497.2,193.7 497.2,189.8 495.5,184.7 487.5,179.7 482.9,174.0 476.8,172.1 481.0,166.7 492.5,156.9 495.4,149.6ZM475.5,150.1 484.0,153.3 494.6,152.8 489.1,158.8 478.0,169.0 476.2,166.9 475.3,162.1 470.4,157.3 473.9,153.0 475.5,150.1ZM249.3,210.2 231.7,204.7 231.2,195.0 223.8,187.6 211.0,191.0 192.6,182.0 196.2,179.1 192.3,173.4 197.1,168.2 203.6,171.8 206.8,164.7 210.3,157.3 227.0,169.2 241.0,170.3 251.6,180.6 249.9,182.7 247.3,183.9 244.4,183.8 242.7,185.6 245.9,186.8 250.8,189.5 248.3,192.0 245.3,192.4 246.5,194.7 245.6,198.6 247.5,198.7 249.6,197.6 250.1,199.8 250.0,205.7 246.9,207.6 249.3,210.2ZM349.5,77.0 360.2,87.5 370.5,89.8 372.5,104.9 375.3,113.0 375.4,123.6 374.7,123.6 351.6,128.3 358.7,117.9 355.3,114.4 352.7,111.1 352.5,108.1 343.3,100.4 346.0,96.5 341.4,88.4 340.9,79.7 349.5,77.0ZM180.3,140.0 187.0,128.8 193.5,116.8 199.0,103.5 196.2,95.6 207.4,89.3 213.9,77.3 219.2,70.2 222.3,64.0 229.9,76.1 242.7,82.2 244.6,92.3 239.7,106.9 234.0,118.3 226.2,125.8 217.1,137.2 209.8,147.5 199.0,148.9 180.3,140.0ZM265.2,111.2 256.8,118.2 254.6,126.1 244.9,130.1 236.4,131.6 231.3,139.2 215.9,147.1 213.8,142.0 222.9,126.6 231.3,121.7 238.8,113.0 242.2,104.7 255.4,103.3 258.6,109.2 264.8,109.8 265.2,111.2ZM272.1,42.4 278.2,38.8 289.9,40.4 303.1,38.1 317.5,39.2 318.3,45.0 320.7,49.8 311.1,55.1 289.4,59.8 280.0,49.0 272.1,42.4ZM342.9,27.4 352.2,24.3 361.8,24.4 368.5,27.3 378.8,33.0 391.2,34.8 404.9,37.4 419.8,35.2 429.4,46.3 418.0,59.6 404.0,70.2 392.4,69.0 386.3,75.4 369.3,74.8 363.8,58.8 360.7,54.4 348.6,37.2 342.9,27.4ZM45.4,352.8 49.5,354.8 49.3,359.1 44.2,364.6 41.5,364.8 44.5,361.8 40.2,358.5 42.4,357.2 43.7,355.5 42.6,352.1 45.0,352.8 45.4,352.8ZM27.2,354.0 25.1,356.5 27.2,354.0ZM60.2,353.2 59.9,352.6 60.2,353.2ZM27.0,335.7 28.2,337.5 27.9,338.2 24.0,337.7 25.4,335.9 27.0,335.7ZM66.3,350.7 66.7,350.5 66.3,350.7ZM66.9,347.4 65.0,345.8 66.6,346.6 66.9,347.4ZM88.0,314.9 93.5,318.3 101.1,325.4 107.8,327.5 108.3,333.4 106.9,338.1 112.3,344.3 111.2,351.2 108.4,348.7 104.4,351.2 100.3,345.4 96.5,343.9 94.3,339.6 93.3,339.3 90.1,339.2 85.6,339.4 84.4,340.9 87.7,341.3 83.6,342.1 81.1,342.4 74.9,343.2 72.8,344.8 73.9,347.2 68.1,349.0 68.6,346.8 69.4,344.2 71.8,341.4 68.2,339.6 66.4,338.5 69.8,337.8 73.3,337.0 74.4,336.9 73.3,335.3 71.9,335.0 71.6,331.9 73.7,329.7 76.5,328.4 76.1,326.6 80.2,325.8 78.7,325.1 76.7,322.3 77.2,321.3 78.9,318.8 84.9,316.0 87.1,312.5 88.0,314.9ZM262.4,116.2 273.7,125.4 273.3,134.0 266.2,143.0 257.5,150.4 239.5,145.9 233.7,133.1 242.6,132.2 249.8,129.7 254.6,126.1 256.8,118.2 262.4,116.2ZM115.0,201.8 127.8,196.8 138.8,192.0 146.9,187.1 163.9,191.0 170.8,196.7 176.8,190.5 183.8,185.4 195.0,177.7 192.8,180.9 197.0,183.2 212.5,191.1 226.2,187.4 231.5,200.9 237.0,207.0 247.8,211.9 247.1,215.2 244.6,218.8 245.4,221.5 243.2,221.8 240.2,222.9 236.5,225.7 238.2,228.4 239.2,233.6 239.6,235.3 235.8,236.2 234.8,232.9 233.7,230.9 229.0,231.9 223.8,238.3 221.9,233.9 228.2,225.1 215.5,230.3 203.4,232.4 200.8,238.0 193.3,245.8 191.4,242.2 181.0,235.6 175.2,234.7 164.8,235.2 150.1,237.6 140.4,234.2 133.1,226.6 123.7,221.4 124.6,213.7 119.5,211.5 113.9,203.2 115.0,201.8ZM170.3,297.6 168.0,295.1 170.3,297.6ZM70.5,229.1 75.8,232.9 84.7,241.2 91.6,236.1 99.5,226.3 105.7,221.9 109.3,215.5 113.9,203.2 119.5,211.5 124.7,213.5 123.7,221.4 133.1,226.6 140.4,234.2 150.1,237.6 165.2,235.0 175.2,234.7 181.3,235.6 190.7,240.4 188.6,246.0 177.9,246.5 165.1,258.9 162.9,271.5 169.0,283.9 177.2,287.1 175.3,287.2 173.5,290.8 174.1,296.5 170.6,293.5 172.4,297.8 167.2,293.6 170.2,298.1 175.3,300.1 174.3,301.8 172.0,302.8 163.7,304.3 153.5,299.2 132.7,296.0 125.9,295.0 122.1,279.0 119.3,270.5 101.9,264.2 95.1,257.1 79.1,249.8 75.0,248.2 68.5,238.8 66.2,227.5 70.5,229.1ZM86.3,303.2 89.5,303.7 86.0,304.9 84.5,303.3 86.3,303.2ZM78.2,303.6 77.7,302.6 78.2,303.6ZM85.7,302.0 86.1,301.9 85.7,302.0ZM89.0,302.6 89.7,302.7 89.0,302.6ZM78.1,297.3 83.5,292.7 84.1,283.8 82.5,271.3 78.4,261.7 78.3,249.5 102.2,258.9 103.4,266.9 123.0,274.3 123.1,281.5 125.9,297.1 118.3,304.2 115.1,308.0 108.9,310.7 112.6,319.2 107.8,327.5 101.1,325.4 93.5,318.3 88.0,314.9 90.7,313.9 92.7,314.5 93.6,315.2 91.8,312.7 89.1,309.7 94.0,309.7 92.3,308.7 92.0,307.4 92.1,304.3 92.2,300.6 90.3,301.1 88.7,302.8 86.3,302.4 87.8,300.5 84.5,300.8 83.1,302.0 80.7,302.0 79.7,303.2 77.7,302.2 78.1,297.3ZM268.5,178.6 269.3,177.8 268.5,178.6ZM265.2,175.3 263.7,175.4 265.2,175.3ZM263.2,175.6 263.1,173.7 263.4,175.1 263.2,175.6ZM249.9,178.2 229.5,170.6 226.4,162.5 235.8,161.1 239.8,154.8 257.5,150.4 266.1,152.5 281.4,149.0 292.6,145.6 300.3,146.5 298.6,148.9 294.3,150.8 290.6,150.3 291.4,152.0 291.8,153.8 288.6,155.7 284.7,155.0 279.9,157.1 279.6,158.4 281.3,159.8 279.8,160.9 281.7,161.2 282.8,158.2 283.3,155.8 284.8,157.8 285.5,159.3 287.1,159.5 289.3,158.2 289.7,156.4 292.0,156.7 294.1,156.3 294.6,153.5 297.6,152.7 298.3,154.6 300.9,154.5 301.9,153.3 303.2,152.3 306.4,153.3 309.6,154.5 306.7,157.1 302.9,159.7 300.0,158.9 299.7,161.0 298.5,159.6 296.5,160.3 293.5,162.2 291.5,161.9 287.2,162.5 284.5,164.1 283.1,162.7 277.8,163.4 274.9,165.5 271.9,170.2 270.2,172.5 270.0,173.9 265.9,175.7 265.5,173.0 269.1,173.4 269.1,172.2 268.3,170.4 266.6,168.9 265.4,170.4 263.2,169.7 262.0,169.3 263.6,165.7 260.7,161.6 259.3,162.8 261.3,166.2 256.9,167.8 256.6,168.9 254.5,170.8 254.4,171.9 252.1,172.2 250.4,173.7 252.0,175.1 252.0,177.9 249.9,178.2ZM472.6,146.8 469.6,157.2 465.5,153.4 472.6,146.8ZM319.3,39.4 323.6,38.8 333.5,56.7 345.1,75.0 340.7,83.0 330.8,83.3 324.4,85.5 305.1,79.7 294.4,82.0 291.5,78.3 283.3,67.8 284.3,62.5 298.9,58.5 316.0,51.9 320.5,48.5 318.5,39.4 319.3,39.4ZM303.5,150.3 305.0,149.6 303.5,150.3ZM303.9,133.5 311.4,142.0 313.1,143.0 310.3,148.2 305.6,148.1 300.3,152.5 300.3,149.1 298.2,145.0 281.4,149.0 267.7,153.3 266.2,143.0 273.3,134.0 281.5,134.5 295.3,130.3 303.9,133.5ZM146.1,343.7 146.5,343.5 146.1,343.7ZM113.8,315.0 129.1,319.0 148.2,314.5 149.0,308.0 153.5,299.2 163.7,304.3 172.0,302.8 177.7,305.7 177.3,310.6 176.8,314.8 174.8,316.4 174.2,319.0 170.2,318.8 163.5,319.5 161.1,320.0 162.1,324.3 162.1,325.0 162.8,327.6 160.9,330.2 161.9,334.1 163.5,336.5 164.5,337.1 169.3,339.4 174.9,340.9 180.4,348.7 180.8,353.7 181.0,359.9 174.9,359.9 171.3,357.0 169.0,357.9 165.2,358.1 165.2,355.6 165.6,351.5 164.5,349.9 161.8,347.1 164.8,344.8 162.1,346.0 159.3,347.8 157.5,344.7 159.6,343.3 157.8,342.4 155.6,343.5 153.1,342.6 151.9,342.2 145.4,341.6 141.1,341.1 140.5,342.4 139.6,346.8 136.9,346.2 137.5,341.5 135.1,340.3 131.6,342.7 129.6,343.0 127.2,344.9 125.9,348.2 123.6,349.2 122.1,349.9 117.6,353.2 114.2,352.4 110.9,340.1 105.7,336.2 108.8,332.6 112.9,323.8 113.8,315.0ZM521.3,138.1 526.6,128.8 523.2,116.9 530.9,116.2 546.6,117.7 554.0,121.2 553.0,120.5 552.8,122.3 551.7,122.8 550.9,122.3 550.7,124.5 548.4,127.9 549.6,129.3 543.8,134.3 541.1,138.2 535.8,146.3 533.7,152.8 528.0,145.0 521.3,138.1ZM556.1,123.2 556.1,122.7 556.1,123.2ZM174.8,142.4 187.3,140.4 198.4,148.5 209.8,147.5 230.8,144.0 251.0,152.0 238.1,155.3 231.7,164.1 212.1,157.3 206.5,168.5 202.6,171.5 192.5,172.9 178.1,178.0 172.6,169.5 167.5,168.7 163.4,164.8 170.7,159.0 173.0,152.6 174.8,142.4ZM475.2,120.0 469.0,113.8 472.2,104.8 476.1,94.7 483.8,86.1 481.6,80.6 485.0,79.8 502.4,78.3 511.0,81.1 515.8,85.9 513.6,95.9 510.5,102.8 503.2,107.6 493.4,107.6 491.7,116.0 484.2,126.9 475.2,120.0ZM453.7,150.8 461.2,140.2 468.6,128.0 475.2,120.0 484.2,126.9 473.5,139.1 464.7,155.5 458.7,152.7 453.7,150.8ZM147.2,185.0 144.4,177.5 134.3,170.9 127.2,162.3 125.0,150.7 122.7,145.3 135.1,142.2 145.1,143.2 159.6,143.3 173.6,143.1 172.7,155.8 165.0,161.6 164.6,167.7 169.6,167.0 174.6,174.6 184.6,180.3 183.0,190.8 170.9,196.6 163.9,191.0 147.2,185.0Z"/></svg>