<svg xmlns="http://www.w3.org/2000/svg" viewBox="0 0 760 520" role="img" aria-label="Shikoku, Kochi and Konan location map"><style>.shikoku{fill:#eeeee8;stroke:#fffefa;stroke-width:1.5}.kochi{fill:#d9ddd3;stroke:#fffefa;stroke-width:2}.konan{fill:#315c46;stroke:#fffefa;stroke-width:2}.line{fill:none;stroke:#9a7251;stroke-width:1.5}.label{font:700 17px Arial,sans-serif;letter-spacing:4px;fill:#23372d}.small{font:700 12px Arial,sans-serif;letter-spacing:3px;fill:#9a7251}</style><path class="shikoku" d="M169.9,433.6 170.2,434.1 169.9,433.6ZM163.7,433.1 164.1,433.6 163.7,433.1ZM137.9,429.5 138.2,428.6 137.9,429.5ZM133.0,428.0 132.2,427.8 133.0,428.0ZM131.9,427.0 131.8,428.1 130.8,425.7 131.9,427.0ZM144.6,424.3 143.6,426.1 141.6,425.9 139.4,426.4 138.7,426.8 139.0,425.6 141.6,424.5 143.7,423.4 144.6,424.3ZM164.5,420.4 165.0,420.3 164.5,420.4ZM134.1,385.2 133.8,386.7 133.1,386.2 133.1,384.7 134.1,385.2ZM125.5,407.7 126.1,408.1 125.5,407.7ZM114.6,385.7 113.1,386.0 110.0,386.8 110.4,385.4 112.3,385.2 114.6,385.7ZM116.4,372.7 112.9,374.3 111.6,374.7 114.7,372.3 116.4,372.7ZM128.3,371.6 129.5,371.0 128.9,372.0 128.3,371.6ZM97.2,366.7 97.2,369.2 98.0,368.5 99.9,369.7 102.0,369.3 104.4,368.2 104.5,369.8 104.0,370.2 103.3,371.6 103.9,372.9 104.8,372.2 107.6,371.6 108.2,372.0 107.6,374.7 109.1,374.9 106.4,375.2 104.0,374.0 102.5,371.1 99.3,370.2 96.5,369.1 96.1,366.5 97.2,366.7ZM131.2,366.9 130.3,367.6 130.3,366.8 131.2,366.9ZM123.2,366.1 122.7,367.3 121.8,366.2 123.2,366.1ZM97.5,365.4 98.5,365.8 98.6,366.2 97.0,365.6 96.1,365.0 97.5,365.4ZM135.3,384.4 135.3,383.9 135.3,384.4ZM147.4,400.0 144.6,400.6 143.2,400.2 142.4,401.7 143.3,403.1 142.4,402.9 140.5,401.5 139.7,399.8 138.2,399.3 137.1,398.8 133.7,398.4 131.9,398.7 131.9,400.0 132.2,401.8 131.7,402.7 132.8,405.2 131.2,404.8 130.2,406.0 129.4,408.4 128.5,408.6 128.6,407.1 126.8,406.8 124.7,406.2 125.5,405.8 127.7,405.6 129.7,403.2 129.4,401.6 131.5,400.4 130.0,399.1 129.4,397.7 131.1,394.7 133.9,394.1 133.5,396.4 134.2,396.6 135.6,395.4 137.2,396.8 138.0,398.1 139.6,398.0 140.9,396.1 142.2,396.6 142.2,398.3 145.2,396.5 149.4,396.0 150.8,398.0 151.8,395.8 151.0,393.2 149.3,392.6 147.9,391.7 148.0,393.1 147.9,394.6 146.4,393.2 145.1,393.1 147.2,391.2 145.8,389.7 147.0,389.7 149.9,387.9 147.5,387.2 148.5,385.7 146.7,383.9 144.7,381.8 141.5,381.7 143.2,381.6 146.5,380.9 147.9,382.1 147.4,383.7 150.2,382.4 151.5,381.1 153.5,382.0 155.1,382.3 159.4,383.0 160.5,380.6 154.7,381.7 155.0,380.0 154.2,379.1 154.6,378.3 149.4,377.1 149.3,378.5 148.0,378.5 144.8,378.1 143.0,377.2 143.7,378.7 140.9,378.5 140.8,376.8 136.4,373.7 137.2,372.7 137.7,374.0 138.3,371.6 138.3,370.1 140.7,370.6 142.7,369.7 144.5,370.5 145.9,369.7 144.1,367.8 141.7,364.6 139.3,365.2 137.6,362.6 136.3,361.4 133.7,361.8 131.9,361.2 134.4,359.9 135.2,359.0 136.4,360.3 137.1,360.6 140.3,361.8 141.1,362.3 142.6,362.1 143.3,361.2 144.6,360.1 144.5,361.0 143.9,362.4 144.9,362.6 144.6,363.8 143.7,364.6 144.3,365.2 144.3,366.1 146.3,367.3 147.3,367.6 147.8,367.4 148.8,366.7 149.6,367.0 150.5,366.2 149.7,368.6 149.0,370.0 151.2,370.7 151.3,371.4 152.3,369.8 153.1,370.0 153.5,368.9 153.2,367.4 154.6,366.9 155.8,367.6 155.8,368.9 155.9,370.1 158.3,369.8 156.8,366.9 156.6,365.5 155.8,365.0 156.8,364.3 152.9,364.5 153.8,363.7 156.0,363.4 154.6,362.2 155.7,362.2 156.4,361.2 158.4,359.5 159.2,359.5 162.4,358.5 163.6,358.4 164.3,358.8 165.5,359.0 164.8,357.8 164.7,355.9 166.7,357.0 168.3,359.0 169.5,357.4 167.3,356.6 167.2,356.0 168.3,355.4 167.7,353.8 165.2,354.1 163.8,353.6 163.0,352.7 161.8,351.5 159.5,350.7 164.4,348.4 165.0,345.2 163.9,345.1 162.5,347.1 159.0,347.4 157.9,346.8 158.5,348.0 155.4,347.6 155.0,345.6 152.4,345.9 149.8,345.2 149.4,345.3 149.8,346.4 150.7,346.6 148.3,349.1 146.7,349.4 148.1,344.6 149.7,342.9 150.2,341.2 153.6,338.5 155.6,338.0 158.0,336.9 160.8,337.0 160.3,334.4 156.5,334.4 155.4,334.9 153.6,334.6 153.3,333.4 152.7,331.9 152.3,333.6 150.1,333.7 149.6,334.0 146.2,334.4 147.1,335.0 141.2,335.7 139.8,335.3 136.4,334.7 135.9,336.1 135.3,337.4 133.5,336.5 130.3,336.0 130.2,335.2 128.5,333.6 125.9,333.0 123.6,333.9 122.6,332.1 124.5,328.8 126.5,327.5 128.1,328.3 129.1,327.0 129.8,326.9 132.5,327.5 132.1,325.2 135.0,324.4 134.0,323.1 132.6,322.3 133.9,318.8 135.1,319.1 133.9,318.1 132.6,318.8 131.6,320.0 128.8,321.2 126.3,322.5 127.5,321.0 127.0,319.7 125.9,317.9 124.8,317.1 127.6,315.3 127.5,312.5 128.3,310.3 127.6,309.6 125.5,309.7 126.1,309.0 129.9,306.3 131.5,307.7 133.9,303.0 129.0,303.7 127.9,303.7 126.2,303.1 128.2,302.4 130.0,302.3 130.7,301.9 131.9,302.2 133.3,300.6 134.2,300.6 134.3,299.6 134.8,298.9 132.1,299.6 129.7,299.4 127.0,298.5 128.2,296.6 130.4,296.9 130.3,295.7 129.2,295.6 128.9,295.4 127.1,295.4 125.1,296.7 124.6,298.2 123.9,298.9 123.7,297.0 121.1,294.0 118.8,292.1 115.9,292.7 118.6,295.5 114.8,295.2 113.2,295.5 111.1,297.2 109.9,299.5 109.3,300.6 108.3,298.3 107.3,296.7 105.7,295.3 104.4,297.6 102.3,298.2 101.3,300.3 100.9,301.9 96.7,303.2 94.5,304.3 90.3,307.3 84.6,308.1 82.0,309.5 79.1,310.1 76.3,311.3 74.2,313.1 72.9,314.3 69.4,320.1 64.8,321.0 62.4,322.0 57.3,323.0 56.9,320.5 59.2,320.2 60.4,320.5 59.6,319.6 60.5,318.1 61.4,316.4 57.7,316.5 53.3,318.1 50.6,319.0 48.3,319.5 46.5,320.8 43.6,322.0 44.4,324.0 39.4,326.6 38.1,327.3 35.6,327.8 38.5,325.8 40.5,323.5 42.8,321.4 51.0,316.6 53.8,313.2 55.8,312.4 58.2,311.5 60.0,309.9 60.8,309.6 62.2,308.6 63.4,309.7 63.1,311.0 65.0,312.9 66.0,308.4 68.6,311.0 71.2,310.9 72.6,309.9 73.0,308.4 68.2,305.2 72.0,306.1 73.6,307.1 75.2,306.5 74.0,302.8 75.8,302.1 79.5,303.2 79.6,301.5 80.8,299.9 84.8,302.6 87.0,302.7 86.9,301.1 88.9,298.4 90.9,298.4 91.3,297.5 93.0,298.6 91.9,299.3 94.4,301.0 95.9,301.2 96.0,300.4 97.0,297.1 97.6,295.6 100.0,295.5 101.9,294.3 103.9,292.5 107.3,290.9 110.9,289.3 112.6,288.6 114.4,288.0 115.6,288.2 118.7,286.4 120.6,285.2 124.1,283.5 126.3,281.5 127.7,282.0 128.9,280.1 129.5,279.9 130.8,278.7 132.3,278.5 135.6,277.3 138.4,274.1 140.3,271.1 144.2,266.9 147.8,263.2 153.9,265.7 158.3,267.9 157.3,267.2 154.4,265.6 149.5,261.5 150.5,259.9 151.0,260.6 152.4,260.2 155.2,258.1 157.4,257.4 162.9,254.9 170.5,252.4 175.3,251.4 183.5,245.5 186.6,243.9 188.3,242.5 193.8,239.1 197.9,231.8 198.8,229.5 202.2,226.9 202.9,226.1 203.9,223.7 204.0,222.9 203.2,219.8 203.5,219.2 202.6,218.7 201.1,217.1 201.5,214.7 200.3,213.3 200.1,211.8 201.1,212.9 202.1,211.3 202.0,209.5 202.1,207.8 201.5,206.4 202.8,205.6 204.0,205.7 204.3,202.5 205.8,200.4 207.1,200.8 205.5,198.8 206.3,199.0 203.5,196.3 205.5,192.4 206.2,190.8 208.8,189.8 211.9,191.0 215.3,189.5 218.0,186.3 220.6,179.2 220.8,172.3 221.6,169.9 221.2,167.0 220.2,166.4 224.9,164.1 227.7,163.9 230.0,161.8 236.0,158.0 237.7,157.6 241.4,155.3 242.2,153.4 244.3,151.6 245.6,152.3 247.9,151.8 253.0,149.6 257.7,150.1 258.2,149.8 257.9,148.9 258.4,148.4 258.2,147.5 257.7,145.8 259.2,144.2 260.7,143.4 260.1,141.4 255.9,138.4 252.5,139.3 252.3,138.0 250.8,137.3 251.9,136.5 254.7,136.4 256.7,136.5 258.8,137.6 261.5,135.4 262.6,132.4 264.9,133.4 266.1,135.1 269.0,137.1 270.1,140.0 270.4,138.4 272.3,137.6 273.0,139.7 273.0,140.5 276.2,145.9 279.0,149.6 279.7,148.8 282.1,150.2 282.6,150.5 283.2,151.2 283.3,151.5 285.2,153.1 285.8,154.4 286.7,156.7 287.0,158.5 289.7,163.6 292.0,167.5 292.6,171.3 293.3,172.6 294.7,172.6 295.3,174.3 298.6,176.7 299.4,178.4 299.0,179.4 301.2,179.8 301.6,180.2 301.5,181.1 303.9,179.1 306.8,180.7 306.3,182.4 306.3,184.4 306.7,184.8 306.8,181.8 308.6,182.8 308.8,184.0 310.1,186.9 308.1,189.2 309.2,189.0 310.5,186.4 310.8,183.7 311.8,185.2 315.2,187.7 316.0,187.2 314.6,183.4 318.2,181.5 319.1,181.9 319.6,183.6 320.7,184.1 320.8,183.0 325.5,179.5 326.9,181.7 327.2,180.9 328.2,180.1 326.8,179.2 335.2,177.2 337.2,176.8 337.8,177.6 337.7,176.6 340.0,177.0 338.7,175.9 340.3,175.3 338.7,174.3 340.4,170.9 341.2,172.3 342.3,173.5 343.7,174.0 343.1,172.8 345.3,172.3 343.1,171.2 345.7,170.8 346.9,169.4 348.7,170.4 353.5,170.1 355.6,168.1 357.9,167.7 359.5,168.4 360.1,170.9 360.3,169.9 361.3,167.9 363.8,170.1 365.9,171.3 374.5,168.2 378.7,168.4 383.1,169.3 386.8,171.1 388.5,170.8 392.0,172.4 398.2,173.7 401.4,172.8 405.2,172.7 406.2,171.0 408.6,170.3 409.7,170.2 411.1,169.7 412.6,168.1 410.8,165.7 411.1,164.7 414.2,165.8 414.0,164.9 413.3,164.0 415.4,164.3 415.4,163.1 415.8,162.4 416.9,162.5 417.2,159.7 417.3,161.1 418.5,161.2 418.5,160.6 419.1,159.3 419.7,159.1 420.9,158.6 423.0,157.7 428.4,158.8 434.8,160.3 442.9,161.1 447.7,163.7 444.1,170.7 447.5,175.8 448.3,180.6 447.5,186.6 444.7,193.0 438.0,195.8 433.2,197.7 427.2,196.1 421.4,199.5 415.0,196.0 410.3,198.3 405.5,204.4 402.9,207.2 397.9,208.6 390.1,207.1 380.8,206.3 374.6,209.6 367.3,208.2 362.8,210.1 358.1,212.5 348.8,208.9 343.8,210.3 342.3,215.4 338.9,219.0 328.2,217.4 325.0,220.0 320.3,226.5 317.2,230.4 314.8,234.8 312.9,239.9 308.2,242.3 304.8,251.0 297.2,252.1 295.0,258.8 297.6,263.0 289.5,271.3 293.5,279.6 287.6,284.4 282.0,291.7 275.0,296.4 264.3,296.7 256.0,297.5 249.5,296.5 243.6,295.8 234.8,296.5 230.7,299.6 235.1,302.9 237.3,309.5 238.9,314.8 243.0,320.0 249.8,323.9 254.1,329.9 252.6,335.9 246.8,337.8 240.1,341.7 235.1,343.2 225.9,347.0 222.8,355.2 222.3,360.2 218.8,363.1 214.0,364.3 212.3,369.3 206.9,375.2 203.4,378.8 199.6,377.3 193.5,372.4 189.3,369.8 185.4,367.8 185.5,373.2 187.0,380.1 192.8,385.4 196.5,389.0 196.6,394.3 194.1,398.7 199.1,404.9 200.4,411.8 201.2,418.0 200.0,423.0 197.9,426.7 194.5,430.9 192.2,429.8 186.2,430.6 183.0,431.7 180.8,432.5 178.0,432.3 178.2,430.5 176.8,430.0 175.9,428.4 176.6,426.8 179.3,425.9 179.7,424.8 177.5,425.2 174.3,426.0 173.0,426.1 170.9,424.8 170.2,425.7 168.3,425.6 166.9,425.2 168.0,426.7 170.1,427.5 170.8,427.9 171.3,429.4 169.9,429.2 166.6,428.4 164.6,427.0 163.9,425.4 162.3,424.6 160.6,424.4 158.6,424.6 156.8,424.8 156.0,426.0 158.6,426.3 161.4,428.3 154.1,431.8 155.4,432.8 158.1,431.7 161.3,431.4 159.9,433.2 160.2,434.3 157.2,435.8 153.0,435.7 152.1,436.0 149.4,435.2 148.1,434.8 148.5,432.5 149.1,431.1 147.6,427.8 145.2,426.6 146.5,426.7 149.0,426.2 150.3,427.0 150.9,425.4 153.5,425.7 154.5,424.4 154.9,422.4 151.6,421.3 150.1,421.0 149.4,419.5 147.2,419.4 150.6,418.8 151.3,418.1 150.9,416.6 153.9,414.8 153.4,415.5 154.3,415.9 153.9,417.4 155.7,418.6 155.1,419.5 153.2,420.6 155.8,420.8 156.4,419.8 158.6,420.3 160.3,420.3 160.4,421.2 162.2,420.3 165.7,422.1 167.3,422.4 167.4,421.2 165.7,420.3 164.0,418.4 162.4,418.3 160.6,418.8 159.9,417.8 159.8,418.3 157.0,416.0 155.4,413.2 156.1,410.8 153.3,407.5 152.3,409.3 150.7,405.9 151.1,401.6 150.1,399.8 148.6,400.4 147.4,402.3 147.4,400.0ZM152.2,363.4 152.5,362.5 152.2,363.4ZM154.1,361.0 154.8,361.1 154.1,361.0ZM131.4,361.5 132.3,362.8 133.5,363.3 133.9,365.6 130.3,366.5 129.7,363.8 127.8,363.5 128.5,362.2 129.9,361.5 131.4,361.5ZM125.1,358.1 126.0,359.8 123.5,361.0 120.8,362.0 120.2,363.5 120.8,364.7 120.9,365.8 119.8,364.3 119.7,362.9 118.6,362.5 119.0,361.9 118.2,360.8 120.3,361.4 121.7,360.9 123.2,359.5 124.4,358.4 125.1,358.1ZM127.7,360.6 127.9,360.9 127.7,360.6ZM121.0,356.8 120.2,355.0 121.7,356.6 121.0,356.8ZM125.3,327.1 124.6,327.2 125.3,327.1ZM131.2,323.5 130.8,323.7 131.2,323.5ZM125.6,321.9 126.9,321.3 125.6,321.9ZM120.8,319.3 119.9,321.2 118.1,320.0 116.3,319.2 120.8,319.3ZM152.1,358.4 150.7,358.7 150.4,357.9 152.6,357.6 152.1,358.4ZM159.8,353.1 161.2,353.3 162.9,355.4 162.9,356.8 160.0,358.2 158.3,356.8 157.8,354.6 159.8,353.1ZM150.9,354.0 149.7,353.5 150.9,354.0ZM194.0,432.6 192.1,432.8 193.9,432.0 194.0,432.6ZM188.9,192.0 190.3,193.9 188.7,193.1 188.4,191.8 188.9,192.0ZM204.4,184.5 202.8,185.3 201.6,187.4 202.1,189.7 199.9,190.4 197.5,190.6 197.1,192.4 199.7,194.3 199.3,195.5 196.6,197.0 194.9,197.5 195.2,195.1 195.8,192.3 196.0,191.4 194.3,190.0 192.3,190.7 194.1,188.2 198.4,188.3 198.8,185.4 201.8,184.2 204.3,184.2 204.4,184.5ZM176.0,187.8 175.9,188.4 176.0,187.8ZM187.7,179.0 187.5,178.3 187.7,179.0ZM116.7,314.6 116.3,315.5 116.3,318.2 114.2,315.6 116.7,314.6ZM121.9,303.7 121.6,304.3 121.9,303.7ZM118.2,300.2 116.4,300.5 116.7,299.2 118.5,299.1 118.2,300.2ZM120.6,299.6 120.9,299.7 120.6,299.6ZM169.6,184.1 169.8,184.5 169.6,184.1ZM168.2,182.0 165.3,182.8 161.9,184.4 159.0,184.0 158.9,182.9 161.2,182.3 163.6,182.6 166.4,182.0 168.2,182.0ZM159.5,168.9 160.2,169.5 157.9,170.9 156.3,172.4 153.7,174.0 153.0,173.9 153.2,173.7 154.8,172.5 154.7,170.3 156.6,169.2 159.5,168.9ZM170.3,167.9 170.2,168.7 169.1,169.3 167.0,172.6 165.6,173.8 164.7,175.7 164.8,172.6 163.8,170.6 163.4,169.2 167.2,168.8 169.2,167.3 170.3,167.9ZM159.1,167.9 159.8,168.1 159.1,167.9ZM301.4,160.8 300.0,160.7 302.0,160.4 301.4,160.8ZM303.1,160.9 302.5,160.7 303.1,160.9ZM368.5,165.0 367.5,167.6 366.2,168.5 363.6,166.9 364.7,164.9 367.6,164.2 368.5,165.0ZM320.5,139.5 320.5,140.1 320.5,139.5ZM302.7,151.8 303.4,152.2 301.0,151.3 302.7,151.8ZM304.5,151.3 304.0,150.8 304.5,151.3ZM278.3,137.0 278.7,137.5 278.0,137.2 278.3,137.0ZM276.6,137.0 275.4,138.5 275.7,135.9 276.6,137.0ZM323.2,139.6 324.6,139.7 323.6,140.9 322.0,140.3 321.5,140.0 322.1,138.6 323.2,139.6ZM387.4,139.4 388.1,139.8 387.4,139.4ZM322.8,137.6 322.7,136.1 323.4,136.8 322.8,137.6ZM316.9,136.5 316.2,137.0 316.7,135.5 316.9,136.5ZM280.2,136.1 279.7,136.5 280.2,136.1ZM279.9,131.0 279.4,130.2 280.3,130.8 279.9,131.0ZM287.5,118.2 294.4,119.1 296.4,121.2 296.9,123.6 299.7,124.4 301.0,123.6 303.9,123.3 304.8,124.4 304.1,125.4 302.4,126.5 301.5,127.0 299.6,127.3 298.0,128.5 296.9,130.8 290.6,136.1 288.1,138.4 286.0,139.7 283.7,139.6 280.7,139.0 281.8,137.5 283.2,135.3 281.1,134.9 282.3,133.0 281.2,131.3 284.0,127.3 285.5,128.8 286.4,129.6 287.2,128.3 286.5,126.2 285.4,123.8 282.9,123.0 283.2,120.9 285.0,118.7 287.5,118.2ZM278.1,128.0 279.8,129.8 278.2,129.6 275.0,129.0 275.7,127.5 276.8,127.1 278.1,128.0ZM388.8,128.4 389.0,127.9 389.3,128.7 388.8,128.4ZM356.0,125.3 355.5,125.6 356.0,125.3ZM366.2,125.6 365.8,123.4 367.5,125.1 366.2,125.6ZM355.6,121.8 356.9,121.6 358.2,123.5 355.3,124.3 353.0,121.7 354.4,121.6 355.6,121.8ZM304.1,126.9 304.1,127.5 304.1,126.9ZM297.1,121.2 297.8,121.0 297.1,121.2ZM300.8,119.3 299.6,120.6 298.5,121.6 297.9,120.1 299.7,119.0 300.8,119.3ZM296.4,118.6 295.2,118.0 296.6,118.4 296.4,118.6ZM344.9,118.4 343.5,121.3 342.7,117.8 344.9,118.4ZM342.3,109.4 339.6,109.9 339.0,109.1 341.4,108.3 342.3,109.4ZM319.4,106.5 318.4,108.7 316.4,108.6 314.7,108.3 315.9,106.0 319.4,106.5ZM326.1,103.6 325.9,105.7 324.2,107.7 323.8,109.9 320.9,109.5 321.9,107.6 323.1,104.3 326.1,103.6ZM248.1,118.9 250.0,118.8 251.5,119.4 251.1,121.0 249.1,121.1 243.6,119.0 245.5,118.4 248.1,118.9ZM244.1,120.0 243.1,119.7 244.1,120.0ZM263.1,119.9 261.7,120.0 263.8,119.3 263.1,119.9ZM254.3,120.0 251.9,119.8 255.0,119.0 254.3,120.0ZM261.3,120.8 258.5,121.1 257.5,119.8 257.7,118.6 259.0,116.6 260.5,119.5 261.3,120.8ZM242.0,119.0 243.1,118.9 242.0,119.0ZM240.9,118.4 241.6,118.9 240.9,118.4ZM261.5,117.1 260.7,116.8 262.5,116.5 261.5,117.1ZM262.0,112.2 262.5,112.4 262.0,112.2ZM266.6,105.4 266.8,106.5 265.0,106.8 264.7,106.2 265.4,105.1 266.6,105.4ZM265.6,104.2 265.8,104.8 265.6,104.2ZM268.3,98.3 268.6,98.0 268.3,98.3ZM272.4,90.7 272.3,89.8 272.8,91.2 272.4,90.7ZM304.4,108.7 303.8,109.4 304.2,111.9 304.8,112.0 306.5,112.5 308.1,112.4 308.9,112.8 312.1,111.8 311.7,113.7 309.9,113.9 308.1,115.3 306.8,116.2 307.7,116.9 308.5,118.2 305.7,118.4 303.2,118.2 302.8,117.2 302.3,116.6 299.9,116.8 296.7,118.3 295.6,116.3 294.9,115.0 292.3,115.4 290.9,114.1 293.6,112.9 292.8,111.6 293.4,108.4 294.9,108.7 297.3,109.7 299.0,108.6 302.7,108.5 304.9,108.7 304.4,108.7ZM315.2,111.2 314.3,113.2 313.8,111.6 314.5,110.9 315.3,109.7 315.9,110.2 315.2,111.2ZM282.9,93.5 286.0,95.6 286.9,98.7 288.1,98.0 287.9,99.5 289.7,102.7 291.0,103.8 290.3,107.2 290.4,110.2 291.9,112.3 288.9,113.4 285.9,115.0 278.2,114.6 275.9,116.6 269.9,118.5 266.3,118.5 264.9,118.3 264.9,116.6 263.2,116.1 264.3,114.8 266.0,111.7 268.7,112.0 268.2,111.2 269.8,110.2 272.7,110.2 274.3,110.8 275.6,107.0 274.5,105.4 274.9,104.1 274.8,101.7 269.3,102.4 270.4,99.6 273.2,100.1 274.0,98.0 273.7,94.8 277.3,94.9 280.5,92.6 282.9,93.5ZM315.3,98.2 318.1,101.4 314.5,106.0 310.3,107.0 310.1,100.9 311.8,98.9 314.8,97.0 315.3,98.2ZM334.7,95.5 336.0,97.2 334.5,98.8 331.1,101.3 329.4,104.6 330.5,104.4 330.4,105.4 328.0,107.7 326.6,105.0 326.8,103.8 326.5,102.1 329.0,98.0 331.9,95.7 333.9,94.5 334.7,95.5ZM320.5,96.3 322.4,98.5 323.6,100.3 323.3,102.5 319.9,102.8 319.2,101.0 319.5,99.7 318.5,99.3 318.1,97.1 320.5,96.3ZM317.3,95.8 317.6,94.9 317.8,96.4 317.3,95.8ZM344.9,92.3 345.8,92.4 344.9,92.3ZM276.0,89.1 276.9,91.2 274.9,90.2 276.0,89.1ZM197.7,177.6 195.1,177.0 193.0,178.2 191.2,175.6 193.8,173.5 194.4,172.5 197.1,175.9 197.7,177.6ZM170.2,173.6 170.3,174.2 170.2,173.6ZM201.6,172.1 202.1,172.9 200.5,174.8 199.7,173.7 201.0,172.8 200.4,172.3 201.6,172.1ZM219.1,172.9 220.1,172.2 219.1,172.9ZM190.9,164.4 189.7,166.2 189.3,167.9 190.2,170.8 188.1,171.3 186.6,173.1 189.5,173.5 190.1,175.8 188.5,176.7 185.8,176.8 181.5,178.0 180.1,179.9 176.9,178.0 177.2,176.6 174.2,173.6 177.0,172.8 180.2,170.3 180.3,168.1 181.5,167.9 184.7,168.0 185.8,166.3 187.4,165.4 190.2,163.8 189.9,162.2 192.0,162.8 190.9,164.4ZM177.9,159.3 176.5,160.2 177.1,158.8 177.9,159.3ZM179.2,156.9 180.0,157.2 179.2,156.9ZM210.0,153.8 210.6,153.7 209.8,154.1 210.0,153.8ZM248.4,148.2 248.4,148.7 248.4,148.2ZM269.7,137.2 270.4,137.3 269.7,137.2ZM273.6,134.9 271.1,136.1 272.3,134.5 273.6,134.9ZM206.8,149.0 205.4,149.1 204.2,150.0 206.3,148.2 206.8,149.0ZM443.1,161.3 434.8,160.3 428.4,158.8 424.5,155.5 428.4,154.3 431.8,153.0 433.3,148.8 432.7,146.6 433.0,145.8 434.2,143.6 433.8,142.8 436.0,137.9 432.9,136.0 434.2,135.1 433.3,135.3 436.7,134.2 434.4,134.2 435.5,129.8 434.8,128.8 436.0,128.1 436.2,127.0 436.7,124.0 436.0,121.7 437.0,120.4 435.5,119.0 433.5,116.4 433.8,115.5 431.4,113.7 430.1,113.9 429.9,112.3 428.4,112.1 427.3,111.5 426.3,108.8 420.3,106.2 419.0,106.2 418.0,106.3 419.0,105.8 420.0,105.0 418.3,104.3 417.4,102.4 414.3,102.0 415.1,101.1 418.8,101.6 422.7,102.0 422.4,102.4 422.5,103.2 428.3,105.4 429.1,107.4 431.3,107.6 436.5,108.9 438.8,108.1 441.4,106.9 442.9,105.5 442.2,107.2 441.7,109.2 442.7,110.3 443.9,107.9 443.5,110.5 443.2,111.5 444.5,109.1 446.2,109.0 446.7,113.5 446.5,112.3 448.2,107.9 450.6,107.4 453.8,104.5 457.3,102.2 458.8,101.4 457.2,97.8 459.4,98.3 460.1,99.4 460.0,99.1 460.8,98.7 459.6,97.3 461.1,96.2 463.7,97.0 464.4,95.7 466.6,95.6 467.1,95.6 465.7,91.6 467.6,91.5 468.4,94.7 468.1,93.4 468.7,92.3 469.8,89.9 471.6,92.8 471.5,93.7 472.1,92.8 473.6,92.6 471.9,91.1 472.1,90.1 474.0,90.7 475.9,91.3 479.1,88.0 480.2,86.7 481.3,86.7 479.8,86.2 479.1,83.7 478.8,79.9 479.9,80.2 480.9,79.1 481.1,78.9 482.3,78.2 484.2,79.2 481.4,82.0 484.9,79.7 485.1,81.1 484.9,79.3 486.1,78.0 487.9,78.1 488.3,81.3 483.7,83.0 484.5,83.9 482.5,86.1 484.7,85.8 485.1,85.6 486.8,85.4 487.0,86.8 487.5,85.4 488.0,84.9 490.3,86.1 490.5,83.9 492.0,84.4 491.0,83.0 492.2,82.3 494.3,82.3 496.1,79.9 496.5,79.9 497.4,79.2 496.7,78.4 495.7,74.1 497.2,72.2 498.9,73.3 500.8,72.4 502.8,73.7 505.1,70.5 507.1,71.8 508.2,73.9 509.6,73.8 510.3,72.5 514.2,75.1 514.8,76.8 516.1,75.8 517.3,74.4 518.7,76.2 521.0,78.1 523.2,79.4 525.0,77.9 525.7,78.3 527.6,79.4 528.5,80.5 531.2,79.4 531.6,79.5 534.6,78.8 536.0,77.6 537.8,79.7 536.9,78.9 538.4,78.2 540.4,77.5 540.4,79.4 541.3,78.9 542.2,77.1 542.6,77.7 542.8,79.9 544.3,82.2 543.3,80.2 545.8,76.3 545.9,71.6 548.9,73.9 551.3,77.5 551.8,74.7 553.4,73.2 554.4,71.2 554.2,70.1 552.6,68.6 554.4,69.0 556.6,67.8 563.3,71.7 562.7,74.5 561.9,76.4 561.7,81.7 560.9,81.7 561.4,83.0 566.5,86.5 567.1,85.7 568.6,84.2 568.5,83.2 569.3,81.9 568.1,81.1 569.8,80.0 572.0,81.0 574.9,81.0 574.7,78.2 573.4,76.0 575.1,75.3 576.0,76.3 576.9,80.2 578.5,80.8 578.6,82.0 580.8,83.3 582.8,81.4 586.3,81.0 587.1,83.5 588.8,84.2 587.6,85.4 588.6,87.7 586.7,89.0 583.8,90.9 584.8,92.8 586.1,95.9 589.3,96.4 590.1,94.8 590.8,96.1 594.2,98.6 598.3,98.0 603.4,101.5 607.1,103.3 610.6,103.8 611.3,104.2 615.3,104.4 615.3,102.6 617.0,102.7 621.2,106.2 620.2,105.8 620.9,107.0 623.1,107.7 624.5,109.1 623.1,110.0 630.2,115.2 632.4,115.2 629.5,122.8 627.6,127.2 623.0,125.8 616.2,124.7 611.5,121.5 608.1,124.6 596.8,125.2 592.9,123.4 587.7,121.9 580.1,122.6 570.6,124.5 564.0,125.2 557.2,129.8 553.9,137.7 545.0,137.7 538.4,139.2 533.8,142.0 530.5,145.7 523.8,148.6 517.9,148.6 511.9,144.8 507.2,138.5 502.5,141.0 497.5,140.4 490.0,141.1 485.3,143.4 480.4,144.1 476.9,149.3 472.3,148.2 464.6,151.9 455.6,158.5 453.3,162.7 447.7,163.7 443.1,161.3ZM408.2,136.1 407.2,133.8 411.8,134.9 409.7,136.5 408.2,136.1ZM433.8,118.6 432.3,118.6 433.8,118.6ZM431.8,116.6 432.5,116.8 431.4,117.3 430.2,116.6 431.8,116.2 431.8,116.6ZM450.1,103.0 449.3,102.6 450.1,103.0ZM427.5,112.8 426.8,112.0 427.5,112.8ZM445.1,99.1 444.6,100.4 442.5,100.1 442.9,98.7 445.1,99.1ZM432.5,98.4 435.8,98.6 436.4,97.1 438.6,97.0 438.0,98.1 438.2,99.9 434.7,99.5 432.8,100.4 431.1,102.1 429.9,103.4 429.1,102.5 429.1,100.8 431.8,98.4 430.9,97.8 430.7,95.7 432.6,96.0 432.0,97.7 432.5,98.4ZM441.8,86.5 445.2,90.2 443.8,91.2 440.4,88.0 440.6,86.1 441.8,86.5ZM472.2,88.2 472.2,88.6 472.2,88.2ZM470.6,77.1 470.6,78.2 469.4,78.7 467.8,77.3 469.2,76.4 470.6,77.1ZM453.3,68.2 453.9,69.8 457.0,74.2 454.9,77.2 453.4,76.6 451.6,78.4 449.3,79.8 447.3,78.6 447.0,75.1 447.0,74.1 447.7,73.3 449.5,71.0 451.7,70.5 452.1,68.1 453.3,68.2ZM598.7,96.7 598.9,97.4 598.7,96.7ZM487.6,74.7 486.3,74.5 487.6,74.7ZM481.5,70.7 481.0,69.1 482.1,70.5 481.5,70.7ZM598.8,96.4 599.5,96.6 598.8,96.4ZM590.2,86.7 590.9,87.2 590.2,86.7ZM565.6,69.5 565.9,68.3 566.2,70.4 565.6,69.5ZM552.9,65.0 553.3,65.3 552.9,65.0ZM436.4,83.8 434.3,83.6 436.4,83.8ZM430.4,84.7 430.1,82.2 429.9,79.0 431.6,84.8 430.4,84.7ZM437.8,73.2 437.5,74.6 436.4,73.5 435.2,73.3 437.8,73.2ZM443.6,65.7 443.8,67.9 441.8,71.2 440.6,70.5 440.1,68.4 437.6,66.6 437.9,65.6 442.4,65.3 443.6,65.7ZM471.3,69.0 471.8,70.0 472.4,71.1 471.4,70.9 470.3,71.9 468.5,72.7 465.1,75.6 463.0,75.3 464.0,72.3 462.9,70.0 462.4,68.1 463.7,69.8 465.9,69.9 466.4,69.0 468.6,67.6 471.3,69.0ZM478.3,69.2 479.1,69.0 479.6,72.3 477.2,69.6 477.0,68.5 478.3,69.2ZM471.4,66.6 471.2,67.1 469.9,66.0 471.4,66.6ZM476.1,64.3 476.7,64.2 476.1,64.3ZM535.9,70.7 533.1,72.8 531.9,72.2 533.7,69.6 536.4,65.6 536.9,66.8 536.2,70.7 535.9,70.7ZM504.5,69.9 504.0,68.7 504.9,69.6 504.5,69.9ZM549.5,65.1 549.8,67.5 548.0,66.8 549.3,65.6 549.0,64.2 549.5,65.1ZM539.0,59.8 539.0,62.5 536.3,62.1 538.0,59.6 539.0,59.8ZM557.1,65.3 556.5,65.0 557.1,65.3ZM553.2,63.7 554.6,63.0 553.2,63.7ZM168.3,473.8 168.9,474.9 172.3,476.7 171.1,479.1 171.8,482.4 166.4,484.5 164.5,484.0 166.7,482.6 165.0,479.9 163.4,478.6 164.7,478.1 165.0,476.9 166.3,476.1 166.1,474.1 165.6,472.1 167.6,473.9 168.3,473.8ZM152.8,475.1 153.0,476.3 150.5,476.9 152.8,475.1ZM180.4,474.4 178.8,474.2 180.4,474.4ZM185.3,471.6 185.6,472.2 185.3,471.6ZM185.7,469.2 183.8,468.5 186.1,467.5 185.7,468.6 185.7,469.2ZM152.5,459.4 154.4,460.3 154.1,461.2 153.0,461.5 149.8,461.7 150.6,460.7 150.9,459.5 152.5,459.4ZM280.0,433.8 279.4,436.1 279.4,438.2 280.0,441.0 278.0,441.7 277.2,443.0 276.7,444.5 275.7,445.7 273.3,445.1 269.1,444.9 267.3,446.5 265.6,446.1 266.8,448.5 265.8,449.7 266.5,450.3 266.3,452.2 267.7,454.2 265.5,454.7 265.6,457.8 267.1,459.1 267.7,460.1 268.6,460.1 269.1,461.2 272.5,462.5 276.9,464.2 278.3,464.2 282.0,470.4 281.4,473.3 282.2,475.3 283.1,479.0 278.5,480.4 277.3,479.9 274.6,478.3 273.6,478.2 272.3,478.1 269.9,478.5 268.8,477.5 269.1,476.2 270.1,473.2 268.0,473.0 268.5,471.4 265.9,471.1 266.9,468.8 268.7,467.1 267.0,466.8 265.5,468.2 264.1,469.6 263.0,468.1 262.9,466.0 264.3,465.8 264.3,465.2 262.3,464.3 261.0,466.0 259.8,465.5 257.9,466.6 257.9,464.9 253.5,463.9 251.9,463.8 248.7,464.0 247.0,464.2 247.2,467.2 247.4,468.8 245.5,469.3 244.5,467.8 245.6,464.3 244.5,464.6 243.0,464.2 240.6,465.3 239.9,467.0 238.7,465.9 237.0,467.1 236.4,469.7 235.1,469.4 234.0,470.8 231.9,470.8 232.3,472.5 228.9,474.1 228.6,473.7 224.6,471.4 223.5,472.5 222.5,471.6 219.9,470.6 217.7,472.5 215.4,468.9 213.3,467.8 211.0,466.4 209.2,464.4 208.2,461.5 208.3,462.4 206.4,461.3 203.5,461.9 201.8,462.5 199.9,462.7 201.5,463.3 203.5,464.1 201.6,464.0 200.2,465.3 198.0,465.0 194.7,465.8 192.4,466.6 191.0,467.1 192.0,468.8 189.1,469.7 186.6,470.6 187.4,468.7 188.7,467.2 187.5,464.8 190.1,464.2 187.7,463.0 186.7,462.0 185.5,461.8 186.6,460.6 189.1,460.5 191.4,460.5 192.3,460.1 193.0,460.7 191.4,459.1 189.1,458.8 190.7,458.4 190.0,456.2 191.4,456.3 192.5,453.9 194.1,453.2 195.0,452.8 194.0,451.2 197.2,451.0 196.8,450.2 195.8,449.7 194.3,448.1 193.4,447.4 195.3,446.1 196.1,445.1 198.5,443.7 201.7,442.0 203.0,439.7 205.0,439.3 205.7,440.2 205.3,442.1 207.3,440.6 207.2,442.3 208.6,442.0 209.2,441.1 207.6,439.3 204.7,437.4 207.1,438.1 209.2,436.6 207.4,436.6 206.6,435.9 206.8,434.5 207.2,432.8 206.2,430.7 210.0,428.8 205.7,430.1 204.2,431.0 203.7,432.0 202.3,431.2 203.7,430.0 202.3,429.2 200.9,429.9 200.3,431.7 198.8,431.2 197.7,430.9 197.1,431.4 195.6,431.7 195.1,431.0 195.2,426.9 200.2,425.8 201.0,420.7 200.5,415.5 198.7,410.0 197.8,402.0 195.7,396.8 197.0,391.5 192.8,385.4 187.0,380.1 185.5,373.2 185.4,367.8 189.3,369.8 193.5,372.4 199.6,377.3 203.4,378.8 206.9,375.2 212.3,369.3 214.0,364.3 218.8,363.1 222.3,360.2 222.8,355.2 225.9,347.0 235.1,343.2 240.1,341.7 246.8,337.8 252.6,335.9 254.1,329.9 249.8,323.9 243.0,320.0 238.9,314.8 237.3,309.5 235.1,302.9 230.7,299.6 234.8,296.5 243.6,295.8 249.5,296.5 256.0,297.5 264.3,296.7 275.0,296.4 282.0,291.7 287.6,284.4 293.5,279.6 289.5,271.3 297.6,263.0 295.0,258.8 297.2,252.1 304.8,251.0 308.2,242.3 312.9,239.9 314.8,234.8 317.2,230.4 320.3,226.5 325.0,220.0 328.2,217.4 338.9,219.0 342.3,215.4 343.8,210.3 348.8,208.9 358.1,212.5 362.8,210.1 367.3,208.2 374.6,209.6 380.8,206.3 390.1,207.1 397.9,208.6 402.9,207.2 405.5,204.4 410.3,198.3 415.0,196.0 421.4,199.5 427.2,196.1 433.2,197.7 438.0,195.8 441.0,198.5 447.6,202.1 454.8,204.0 460.2,204.9 469.6,205.8 479.1,206.9 484.4,205.2 491.4,212.3 495.6,215.3 499.6,217.6 504.5,216.6 511.6,213.9 515.1,207.5 520.1,206.1 523.2,210.9 532.0,209.1 532.1,213.8 535.2,218.2 538.3,222.2 538.9,231.2 539.8,235.8 539.5,243.0 545.9,242.4 556.7,242.3 561.5,244.1 567.0,246.0 566.9,251.9 563.7,256.6 562.2,262.4 569.4,268.6 572.0,274.9 578.4,273.8 586.7,276.7 594.5,275.2 597.9,278.0 597.5,277.1 597.2,278.2 596.9,278.9 596.3,280.0 596.2,279.0 595.3,278.9 594.7,280.4 593.5,281.4 593.1,283.6 594.0,284.4 593.0,285.2 589.3,289.1 587.9,291.0 586.4,292.6 582.3,301.9 580.5,305.3 574.9,314.6 575.9,317.4 573.8,321.1 572.8,324.5 572.6,325.8 572.2,331.4 571.5,332.8 570.8,335.6 569.2,341.3 568.8,345.5 568.1,349.4 566.7,352.0 563.7,346.6 560.6,342.8 558.8,341.4 558.7,340.6 557.5,339.3 552.8,338.5 549.9,339.3 550.0,337.3 549.2,334.4 548.4,331.6 543.1,329.0 540.0,324.4 537.7,322.6 533.5,320.4 531.5,319.0 532.1,316.7 530.8,310.4 527.3,308.8 527.9,308.5 527.0,308.0 524.0,307.2 518.4,304.8 516.1,303.8 512.8,302.5 508.9,298.1 509.6,295.4 501.9,290.4 495.6,288.7 494.1,288.4 488.7,287.7 483.3,287.2 481.6,285.6 467.6,285.2 466.6,285.3 462.8,283.8 462.5,282.5 463.5,282.2 461.0,280.0 454.8,280.3 448.3,280.4 447.6,280.0 446.8,280.3 446.6,278.5 446.2,280.0 445.4,280.7 421.8,285.2 417.4,288.7 415.7,288.3 416.6,286.7 417.1,286.0 417.6,284.9 416.2,285.2 416.3,281.5 417.1,277.2 417.9,274.2 417.6,271.8 415.9,270.2 416.7,271.4 417.3,274.8 416.7,278.7 415.7,276.2 413.9,275.9 415.2,277.6 413.7,279.6 415.5,280.8 413.7,282.1 412.4,283.8 412.4,284.4 413.1,286.1 414.5,288.0 416.0,289.8 418.7,290.1 410.5,292.8 403.5,295.2 401.8,296.9 397.7,298.2 396.8,297.6 391.8,295.2 395.0,297.1 394.9,298.6 391.8,300.8 389.3,301.6 386.2,301.5 385.0,304.1 381.5,303.7 381.9,301.4 380.0,302.9 377.2,302.0 375.4,302.5 375.9,303.2 377.7,304.0 376.1,305.5 375.1,306.4 372.6,306.7 370.1,306.6 368.3,306.2 364.9,308.6 364.3,309.9 367.0,309.6 367.3,310.6 365.7,311.3 367.3,311.4 368.3,310.9 368.5,309.3 368.8,307.3 369.5,308.2 370.3,308.9 370.6,310.0 371.2,309.8 372.2,310.3 373.0,308.3 373.9,308.4 374.4,307.7 376.5,310.0 376.3,308.0 377.6,307.6 377.6,307.0 378.5,305.3 379.7,304.0 380.8,305.1 381.7,306.2 383.8,306.8 384.4,306.4 384.7,305.1 386.3,304.8 386.8,303.8 388.5,305.1 390.2,305.5 390.1,307.1 388.8,308.4 386.5,308.7 384.6,309.8 383.1,309.9 383.2,311.4 382.2,311.1 381.8,310.4 380.7,311.9 378.9,310.9 377.6,312.7 377.3,314.3 374.3,313.1 372.2,312.9 370.1,313.1 370.7,315.1 368.8,313.1 365.9,313.0 362.6,313.4 361.8,315.4 358.7,317.0 358.9,320.5 357.9,321.3 358.5,323.0 356.6,323.0 354.2,324.1 354.2,322.6 355.0,321.7 356.9,322.1 356.2,320.8 356.5,320.3 356.3,319.6 355.8,317.9 355.2,318.8 353.8,319.6 352.7,318.5 352.1,319.8 350.9,318.6 348.6,317.7 351.4,315.2 349.9,312.2 349.2,312.5 348.8,314.0 350.4,316.0 347.4,316.8 345.8,317.2 346.4,318.4 346.6,319.4 344.4,320.2 344.6,320.9 343.1,321.7 341.8,321.7 341.1,322.4 342.2,323.0 341.9,324.9 342.0,325.9 342.5,327.5 341.2,328.1 340.9,329.1 338.8,329.9 338.5,331.0 336.3,329.9 334.8,331.0 334.6,332.4 336.5,333.5 338.1,334.3 341.5,335.7 338.7,337.2 339.2,338.3 336.8,338.2 336.4,339.3 337.4,341.3 337.0,343.4 338.6,344.3 339.5,343.5 340.5,342.6 341.6,344.0 340.3,346.0 342.4,348.6 340.1,350.5 338.3,350.6 339.5,352.4 340.2,353.5 339.0,354.7 340.6,356.5 337.4,358.5 336.3,360.5 335.2,362.0 336.9,363.7 336.2,363.3 333.3,363.8 332.5,364.0 330.2,365.1 329.6,367.3 330.8,368.6 331.6,370.7 331.9,373.7 332.5,374.0 330.4,374.6 329.1,375.4 329.3,374.1 328.4,372.2 327.0,370.7 324.7,370.7 323.1,371.6 319.4,374.8 316.7,379.9 315.4,381.2 313.9,384.6 313.1,386.4 310.6,389.5 307.0,390.8 305.5,392.0 305.6,392.8 304.3,392.8 303.2,393.9 304.1,396.7 302.9,396.9 301.7,398.7 301.4,399.9 301.3,401.1 300.9,402.3 300.9,403.8 301.2,405.9 299.3,405.4 296.9,404.1 292.5,402.9 292.0,402.2 288.6,402.3 286.6,402.6 281.1,406.9 279.6,409.0 278.7,411.5 278.1,413.9 278.1,415.5 277.2,416.5 278.0,418.1 277.0,419.4 276.3,421.1 275.7,423.7 276.8,426.0 276.0,427.5 273.7,423.8 273.7,426.0 272.7,425.3 270.8,423.8 273.3,427.6 277.5,428.8 276.8,429.5 276.8,430.7 280.0,433.8ZM252.7,465.7 253.0,465.1 252.9,466.2 252.7,465.7ZM273.0,427.2 272.0,427.0 273.4,426.7 273.0,427.2ZM305.4,394.4 305.7,393.9 305.4,394.4ZM202.9,432.0 204.6,431.9 204.3,433.5 202.1,433.3 200.8,433.0 202.9,432.0ZM194.9,432.3 194.7,431.6 194.7,431.2 195.5,432.0 194.9,432.3ZM204.5,431.1 205.2,431.5 204.5,431.1ZM201.7,430.6 202.1,430.0 201.9,430.9 201.7,430.6ZM353.7,324.1 353.0,324.5 353.1,323.7 353.7,324.1ZM351.5,324.0 350.5,323.1 352.5,322.8 352.1,323.9 351.5,324.0ZM562.9,347.5 562.2,347.5 562.9,347.5ZM562.7,346.8 562.4,347.3 562.7,346.8ZM559.3,341.9 558.4,341.7 559.3,341.9ZM356.3,326.2 356.0,325.3 356.6,326.6 356.3,326.2ZM386.1,302.2 387.5,301.7 386.1,302.2ZM598.9,279.6 599.9,279.4 598.9,279.6ZM603.3,275.1 603.0,275.2 603.3,275.1ZM613.0,267.3 613.9,266.7 613.0,267.3ZM627.0,257.3 626.8,255.0 628.2,256.1 627.0,257.3ZM644.7,254.4 647.1,254.3 646.7,256.0 642.9,256.2 641.3,255.6 642.9,255.7 642.5,253.2 644.7,254.4ZM602.2,279.3 601.0,278.8 602.9,278.9 602.2,279.3ZM603.5,274.7 603.0,274.9 603.5,274.7ZM601.2,274.4 602.1,274.2 601.2,274.4ZM565.7,264.8 561.0,257.5 565.7,255.0 565.6,248.2 564.1,243.6 558.8,243.7 554.3,241.7 543.2,243.1 540.1,238.4 540.5,233.3 537.8,227.6 537.3,219.8 534.1,215.7 532.9,211.4 527.0,210.7 521.4,208.9 517.7,207.1 512.9,208.5 509.9,215.9 502.3,218.0 498.2,215.4 492.5,214.6 487.9,207.9 481.7,205.1 471.8,207.1 461.8,207.0 457.7,203.6 449.7,203.4 445.1,201.6 440.5,196.0 444.3,190.4 446.4,183.0 447.2,178.3 445.5,173.8 444.6,168.3 450.2,162.6 455.4,161.4 457.2,156.1 469.7,147.3 474.4,149.9 479.4,148.2 482.7,143.2 487.5,141.9 492.5,142.2 499.3,142.1 504.7,138.9 510.0,142.8 515.9,146.9 520.5,148.2 525.2,146.2 531.4,143.2 536.1,138.1 542.3,138.0 547.3,138.8 557.9,134.2 560.8,126.2 566.5,123.8 575.2,123.9 583.8,122.7 590.3,122.4 595.5,122.9 602.6,123.9 609.2,122.3 614.3,123.1 620.6,126.8 625.1,127.5 630.4,125.2 631.6,120.0 634.4,115.6 638.9,114.9 645.1,111.0 652.6,110.8 656.0,110.5 659.6,111.6 662.2,110.9 663.1,111.4 662.3,109.8 662.6,108.3 667.2,107.1 668.2,108.0 667.4,109.6 667.5,113.2 666.9,116.1 670.5,118.6 676.8,121.9 680.9,122.0 675.1,130.5 673.1,129.4 669.9,129.3 673.1,131.4 675.2,131.5 674.4,133.2 675.2,134.3 673.1,134.4 671.1,139.7 668.7,136.0 664.8,133.9 663.0,135.0 667.3,135.2 670.3,141.1 671.4,140.7 671.4,144.0 667.8,152.6 664.1,151.6 660.9,149.7 662.3,150.2 665.2,152.8 669.0,155.5 667.6,156.7 663.0,155.6 660.6,158.2 661.3,157.4 666.1,157.1 667.7,157.7 669.4,158.2 667.7,158.9 670.2,160.5 670.9,161.7 669.4,162.3 668.9,163.9 670.0,165.8 672.2,167.0 673.3,167.8 673.0,168.6 672.3,170.3 675.0,168.2 678.1,168.1 677.9,166.7 677.9,165.5 676.6,164.9 678.1,163.3 680.7,164.5 684.2,171.2 687.9,175.7 694.1,178.2 691.9,178.9 693.5,179.1 694.1,179.3 688.1,182.0 684.0,181.2 679.2,180.6 678.5,181.4 681.0,180.7 686.4,181.7 688.1,182.5 694.5,181.0 696.5,182.9 689.7,182.4 687.9,183.6 690.0,182.8 696.0,184.9 695.3,186.9 694.6,188.3 695.0,189.3 691.3,192.7 689.8,194.8 689.2,196.1 688.6,195.5 688.8,194.1 687.0,196.0 685.5,197.1 681.7,197.1 681.7,197.9 678.8,199.2 678.2,201.7 678.0,202.7 678.7,201.0 680.7,199.5 681.6,201.1 681.3,202.4 680.5,204.0 682.3,204.7 683.7,204.3 685.5,203.7 686.4,203.4 687.7,204.2 688.8,202.9 689.3,203.7 690.0,202.8 691.3,202.6 692.0,202.4 693.4,201.8 694.6,202.9 697.0,202.9 699.4,203.3 697.7,204.9 693.5,205.6 691.4,207.0 690.5,207.8 693.8,207.4 698.3,206.8 699.9,207.5 701.5,206.7 704.7,205.4 706.1,205.4 707.6,207.1 704.3,208.2 700.5,209.5 694.8,212.3 692.8,213.8 691.2,213.8 687.7,214.8 681.5,217.8 681.2,219.6 679.6,218.7 677.9,218.7 674.9,220.1 672.9,220.6 671.0,222.3 669.6,223.9 669.1,222.1 668.2,223.0 666.8,222.2 665.8,222.7 665.1,224.8 663.3,224.8 663.9,225.8 663.9,227.2 663.6,229.0 662.9,231.0 661.8,232.1 660.0,231.7 660.1,230.7 658.6,231.2 656.6,231.0 656.9,233.7 657.0,234.6 654.1,236.7 652.7,237.5 650.4,238.8 649.4,239.5 647.2,240.1 645.7,241.0 644.2,241.7 643.2,242.4 642.5,243.3 639.3,244.5 637.3,245.5 635.4,246.0 633.3,247.0 632.7,248.3 631.6,248.3 628.7,248.8 627.0,248.1 626.2,249.3 625.7,250.6 623.3,250.8 621.6,250.9 620.8,252.0 619.4,252.8 618.5,253.5 617.3,254.4 616.2,254.8 616.1,256.4 615.2,256.3 613.9,256.4 613.5,256.9 612.4,258.0 616.9,258.0 619.2,258.9 617.7,259.7 614.9,261.9 612.3,264.9 612.6,267.3 605.2,268.2 609.6,268.4 612.5,269.4 609.8,269.6 605.3,269.6 602.7,269.3 601.2,269.1 601.4,270.1 598.9,272.4 598.8,273.8 600.3,274.6 600.4,276.8 600.4,277.8 598.8,276.8 594.5,275.2 586.7,276.7 578.4,273.8 572.0,274.9 569.4,268.6 565.7,264.8ZM633.6,255.4 632.6,254.7 633.9,254.5 633.6,255.4ZM447.7,163.7 447.7,163.7 447.7,163.7ZM668.4,225.2 669.0,224.3 668.4,225.5 668.4,225.2ZM685.7,198.8 685.9,199.8 685.8,200.7 684.1,202.1 682.8,200.7 683.9,199.9 683.8,198.7 685.2,198.9 685.7,198.8ZM724.9,203.2 724.7,204.4 723.6,204.9 721.3,204.8 720.5,205.7 719.4,204.8 717.9,203.8 720.7,204.8 721.9,202.9 723.0,202.6 725.0,201.4 724.9,203.2ZM705.4,203.0 702.2,203.7 703.4,202.9 705.1,202.2 705.4,203.0ZM698.7,201.3 697.5,202.4 697.7,201.1 698.7,201.3ZM691.9,199.9 691.7,200.2 691.9,199.9ZM689.8,200.0 688.5,200.7 688.1,198.7 689.1,199.3 690.4,198.2 690.1,199.0 689.8,200.0ZM688.6,196.4 686.7,196.5 688.6,196.4ZM698.8,187.7 698.0,188.1 698.8,187.7ZM700.2,186.4 700.6,186.0 700.2,186.4ZM699.8,184.9 700.8,184.3 699.8,184.9ZM694.2,180.1 692.7,180.5 694.3,179.8 694.2,180.1ZM670.8,149.9 672.3,150.9 669.1,153.1 669.0,151.1 670.8,149.9ZM670.4,140.6 670.7,140.0 670.4,140.6ZM672.6,104.5 674.7,105.2 675.1,106.3 675.4,107.7 674.8,109.0 679.1,109.0 681.5,107.2 679.5,110.3 678.6,112.5 677.1,116.1 677.1,120.4 673.9,118.3 671.4,117.5 668.7,116.9 667.7,114.5 669.1,114.4 670.4,115.0 672.8,113.2 674.4,114.5 676.3,113.5 675.6,112.7 673.9,111.1 674.6,109.2 673.4,109.7 672.9,108.8 670.7,112.0 669.8,112.6 668.1,112.6 668.9,111.0 668.7,107.8 669.0,106.4 671.8,104.3 672.6,104.5Z"/><path class="kochi" d="M168.3,473.8 168.9,474.9 172.3,476.7 171.1,479.1 171.8,482.4 166.4,484.5 164.5,484.0 166.7,482.6 165.0,479.9 163.4,478.6 164.7,478.1 165.0,476.9 166.3,476.1 166.1,474.1 165.6,472.1 167.6,473.9 168.3,473.8ZM152.8,475.1 153.0,476.3 150.5,476.9 152.8,475.1ZM180.4,474.4 178.8,474.2 180.4,474.4ZM185.3,471.6 185.6,472.2 185.3,471.6ZM185.7,469.2 183.8,468.5 186.1,467.5 185.7,468.6 185.7,469.2ZM152.5,459.4 154.4,460.3 154.1,461.2 153.0,461.5 149.8,461.7 150.6,460.7 150.9,459.5 152.5,459.4ZM280.0,433.8 279.4,436.1 279.4,438.2 280.0,441.0 278.0,441.7 277.2,443.0 276.7,444.5 275.7,445.7 273.3,445.1 269.1,444.9 267.3,446.5 265.6,446.1 266.8,448.5 265.8,449.7 266.5,450.3 266.3,452.2 267.7,454.2 265.5,454.7 265.6,457.8 267.1,459.1 267.7,460.1 268.6,460.1 269.1,461.2 272.5,462.5 276.9,464.2 278.3,464.2 282.0,470.4 281.4,473.3 282.2,475.3 283.1,479.0 278.5,480.4 277.3,479.9 274.6,478.3 273.6,478.2 272.3,478.1 269.9,478.5 268.8,477.5 269.1,476.2 270.1,473.2 268.0,473.0 268.5,471.4 265.9,471.1 266.9,468.8 268.7,467.1 267.0,466.8 265.5,468.2 264.1,469.6 263.0,468.1 262.9,466.0 264.3,465.8 264.3,465.2 262.3,464.3 261.0,466.0 259.8,465.5 257.9,466.6 257.9,464.9 253.5,463.9 251.9,463.8 248.7,464.0 247.0,464.2 247.2,467.2 247.4,468.8 245.5,469.3 244.5,467.8 245.6,464.3 244.5,464.6 243.0,464.2 240.6,465.3 239.9,467.0 238.7,465.9 237.0,467.1 236.4,469.7 235.1,469.4 234.0,470.8 231.9,470.8 232.3,472.5 228.9,474.1 228.6,473.7 224.6,471.4 223.5,472.5 222.5,471.6 219.9,470.6 217.7,472.5 215.4,468.9 213.3,467.8 211.0,466.4 209.2,464.4 208.2,461.5 208.3,462.4 206.4,461.3 203.5,461.9 201.8,462.5 199.9,462.7 201.5,463.3 203.5,464.1 201.6,464.0 200.2,465.3 198.0,465.0 194.7,465.8 192.4,466.6 191.0,467.1 192.0,468.8 189.1,469.7 186.6,470.6 187.4,468.7 188.7,467.2 187.5,464.8 190.1,464.2 187.7,463.0 186.7,462.0 185.5,461.8 186.6,460.6 189.1,460.5 191.4,460.5 192.3,460.1 193.0,460.7 191.4,459.1 189.1,458.8 190.7,458.4 190.0,456.2 191.4,456.3 192.5,453.9 194.1,453.2 195.0,452.8 194.0,451.2 197.2,451.0 196.8,450.2 195.8,449.7 194.3,448.1 193.4,447.4 195.3,446.1 196.1,445.1 198.5,443.7 201.7,442.0 203.0,439.7 205.0,439.3 205.7,440.2 205.3,442.1 207.3,440.6 207.2,442.3 208.6,442.0 209.2,441.1 207.6,439.3 204.7,437.4 207.1,438.1 209.2,436.6 207.4,436.6 206.6,435.9 206.8,434.5 207.2,432.8 206.2,430.7 210.0,428.8 205.7,430.1 204.2,431.0 203.7,432.0 202.3,431.2 203.7,430.0 202.3,429.2 200.9,429.9 200.3,431.7 198.8,431.2 197.7,430.9 197.1,431.4 195.6,431.7 195.1,431.0 195.2,426.9 200.2,425.8 201.0,420.7 200.5,415.5 198.7,410.0 197.8,402.0 195.7,396.8 197.0,391.5 192.8,385.4 187.0,380.1 185.5,373.2 185.4,367.8 189.3,369.8 193.5,372.4 199.6,377.3 203.4,378.8 206.9,375.2 212.3,369.3 214.0,364.3 218.8,363.1 222.3,360.2 222.8,355.2 225.9,347.0 235.1,343.2 240.1,341.7 246.8,337.8 252.6,335.9 254.1,329.9 249.8,323.9 243.0,320.0 238.9,314.8 237.3,309.5 235.1,302.9 230.7,299.6 234.8,296.5 243.6,295.8 249.5,296.5 256.0,297.5 264.3,296.7 275.0,296.4 282.0,291.7 287.6,284.4 293.5,279.6 289.5,271.3 297.6,263.0 295.0,258.8 297.2,252.1 304.8,251.0 308.2,242.3 312.9,239.9 314.8,234.8 317.2,230.4 320.3,226.5 325.0,220.0 328.2,217.4 338.9,219.0 342.3,215.4 343.8,210.3 348.8,208.9 358.1,212.5 362.8,210.1 367.3,208.2 374.6,209.6 380.8,206.3 390.1,207.1 397.9,208.6 402.9,207.2 405.5,204.4 410.3,198.3 415.0,196.0 421.4,199.5 427.2,196.1 433.2,197.7 438.0,195.8 441.0,198.5 447.6,202.1 454.8,204.0 460.2,204.9 469.6,205.8 479.1,206.9 484.4,205.2 491.4,212.3 495.6,215.3 499.6,217.6 504.5,216.6 511.6,213.9 515.1,207.5 520.1,206.1 523.2,210.9 532.0,209.1 532.1,213.8 535.2,218.2 538.3,222.2 538.9,231.2 539.8,235.8 539.5,243.0 545.9,242.4 556.7,242.3 561.5,244.1 567.0,246.0 566.9,251.9 563.7,256.6 562.2,262.4 569.4,268.6 572.0,274.9 578.4,273.8 586.7,276.7 594.5,275.2 597.9,278.0 597.5,277.1 597.2,278.2 596.9,278.9 596.3,280.0 596.2,279.0 595.3,278.9 594.7,280.4 593.5,281.4 593.1,283.6 594.0,284.4 593.0,285.2 589.3,289.1 587.9,291.0 586.4,292.6 582.3,301.9 580.5,305.3 574.9,314.6 575.9,317.4 573.8,321.1 572.8,324.5 572.6,325.8 572.2,331.4 571.5,332.8 570.8,335.6 569.2,341.3 568.8,345.5 568.1,349.4 566.7,352.0 563.7,346.6 560.6,342.8 558.8,341.4 558.7,340.6 557.5,339.3 552.8,338.5 549.9,339.3 550.0,337.3 549.2,334.4 548.4,331.6 543.1,329.0 540.0,324.4 537.7,322.6 533.5,320.4 531.5,319.0 532.1,316.7 530.8,310.4 527.3,308.8 527.9,308.5 527.0,308.0 524.0,307.2 518.4,304.8 516.1,303.8 512.8,302.5 508.9,298.1 509.6,295.4 501.9,290.4 495.6,288.7 494.1,288.4 488.7,287.7 483.3,287.2 481.6,285.6 467.6,285.2 466.6,285.3 462.8,283.8 462.5,282.5 463.5,282.2 461.0,280.0 454.8,280.3 448.3,280.4 447.6,280.0 446.8,280.3 446.6,278.5 446.2,280.0 445.4,280.7 421.8,285.2 417.4,288.7 415.7,288.3 416.6,286.7 417.1,286.0 417.6,284.9 416.2,285.2 416.3,281.5 417.1,277.2 417.9,274.2 417.6,271.8 415.9,270.2 416.7,271.4 417.3,274.8 416.7,278.7 415.7,276.2 413.9,275.9 415.2,277.6 413.7,279.6 415.5,280.8 413.7,282.1 412.4,283.8 412.4,284.4 413.1,286.1 414.5,288.0 416.0,289.8 418.7,290.1 410.5,292.8 403.5,295.2 401.8,296.9 397.7,298.2 396.8,297.6 391.8,295.2 395.0,297.1 394.9,298.6 391.8,300.8 389.3,301.6 386.2,301.5 385.0,304.1 381.5,303.7 381.9,301.4 380.0,302.9 377.2,302.0 375.4,302.5 375.9,303.2 377.7,304.0 376.1,305.5 375.1,306.4 372.6,306.7 370.1,306.6 368.3,306.2 364.9,308.6 364.3,309.9 367.0,309.6 367.3,310.6 365.7,311.3 367.3,311.4 368.3,310.9 368.5,309.3 368.8,307.3 369.5,308.2 370.3,308.9 370.6,310.0 371.2,309.8 372.2,310.3 373.0,308.3 373.9,308.4 374.4,307.7 376.5,310.0 376.3,308.0 377.6,307.6 377.6,307.0 378.5,305.3 379.7,304.0 380.8,305.1 381.7,306.2 383.8,306.8 384.4,306.4 384.7,305.1 386.3,304.8 386.8,303.8 388.5,305.1 390.2,305.5 390.1,307.1 388.8,308.4 386.5,308.7 384.6,309.8 383.1,309.9 383.2,311.4 382.2,311.1 381.8,310.4 380.7,311.9 378.9,310.9 377.6,312.7 377.3,314.3 374.3,313.1 372.2,312.9 370.1,313.1 370.7,315.1 368.8,313.1 365.9,313.0 362.6,313.4 361.8,315.4 358.7,317.0 358.9,320.5 357.9,321.3 358.5,323.0 356.6,323.0 354.2,324.1 354.2,322.6 355.0,321.7 356.9,322.1 356.2,320.8 356.5,320.3 356.3,319.6 355.8,317.9 355.2,318.8 353.8,319.6 352.7,318.5 352.1,319.8 350.9,318.6 348.6,317.7 351.4,315.2 349.9,312.2 349.2,312.5 348.8,314.0 350.4,316.0 347.4,316.8 345.8,317.2 346.4,318.4 346.6,319.4 344.4,320.2 344.6,320.9 343.1,321.7 341.8,321.7 341.1,322.4 342.2,323.0 341.9,324.9 342.0,325.9 342.5,327.5 341.2,328.1 340.9,329.1 338.8,329.9 338.5,331.0 336.3,329.9 334.8,331.0 334.6,332.4 336.5,333.5 338.1,334.3 341.5,335.7 338.7,337.2 339.2,338.3 336.8,338.2 336.4,339.3 337.4,341.3 337.0,343.4 338.6,344.3 339.5,343.5 340.5,342.6 341.6,344.0 340.3,346.0 342.4,348.6 340.1,350.5 338.3,350.6 339.5,352.4 340.2,353.5 339.0,354.7 340.6,356.5 337.4,358.5 336.3,360.5 335.2,362.0 336.9,363.7 336.2,363.3 333.3,363.8 332.5,364.0 330.2,365.1 329.6,367.3 330.8,368.6 331.6,370.7 331.9,373.7 332.5,374.0 330.4,374.6 329.1,375.4 329.3,374.1 328.4,372.2 327.0,370.7 324.7,370.7 323.1,371.6 319.4,374.8 316.7,379.9 315.4,381.2 313.9,384.6 313.1,386.4 310.6,389.5 307.0,390.8 305.5,392.0 305.6,392.8 304.3,392.8 303.2,393.9 304.1,396.7 302.9,396.9 301.7,398.7 301.4,399.9 301.3,401.1 300.9,402.3 300.9,403.8 301.2,405.9 299.3,405.4 296.9,404.1 292.5,402.9 292.0,402.2 288.6,402.3 286.6,402.6 281.1,406.9 279.6,409.0 278.7,411.5 278.1,413.9 278.1,415.5 277.2,416.5 278.0,418.1 277.0,419.4 276.3,421.1 275.7,423.7 276.8,426.0 276.0,427.5 273.7,423.8 273.7,426.0 272.7,425.3 270.8,423.8 273.3,427.6 277.5,428.8 276.8,429.5 276.8,430.7 280.0,433.8ZM252.7,465.7 253.0,465.1 252.9,466.2 252.7,465.7ZM273.0,427.2 272.0,427.0 273.4,426.7 273.0,427.2ZM305.4,394.4 305.7,393.9 305.4,394.4ZM202.9,432.0 204.6,431.9 204.3,433.5 202.1,433.3 200.8,433.0 202.9,432.0ZM194.9,432.3 194.7,431.6 194.7,431.2 195.5,432.0 194.9,432.3ZM204.5,431.1 205.2,431.5 204.5,431.1ZM201.7,430.6 202.1,430.0 201.9,430.9 201.7,430.6ZM353.7,324.1 353.0,324.5 353.1,323.7 353.7,324.1ZM351.5,324.0 350.5,323.1 352.5,322.8 352.1,323.9 351.5,324.0ZM562.9,347.5 562.2,347.5 562.9,347.5ZM562.7,346.8 562.4,347.3 562.7,346.8ZM559.3,341.9 558.4,341.7 559.3,341.9ZM356.3,326.2 356.0,325.3 356.6,326.6 356.3,326.2ZM386.1,302.2 387.5,301.7 386.1,302.2ZM598.9,279.6 599.9,279.4 598.9,279.6Z"/><path class="konan" d="M500.4,253.1 494.4,258.2 486.2,268.8 476.9,275.7 468.2,284.7 464.4,284.3 463.0,283.0 462.9,281.8 463.2,281.3 456.3,279.5 453.9,279.7 448.0,279.9 447.8,280.3 447.2,278.8 446.8,270.6 448.8,266.5 479.5,258.9 484.9,252.2 493.6,249.9 500.5,250.6 500.4,253.1Z"/><path class="line" d="M469.5,271.0V105H510"/><circle cx="469.5" cy="271.0" r="5" fill="#9a7251"/><text class="label" x="510" y="96">KONAN</text><text class="small" x="105" y="455">KOCHI</text></svg>